<svg width="0" height="0" class="hidden">
	<symbol xmlns="http://www.w3.org/2000/svg" id="user" viewBox="0 0 19 19" fill="none">
		<path d="M13.2941 4.13043C13.2941 5.9974 11.7806 7.51087 9.91364 7.51087C8.04668 7.51087 6.5332 5.9974 6.5332 4.13043C6.5332 2.26347 8.04668 0.75 9.91364 0.75C11.7806 0.75 13.2941 2.26347 13.2941 4.13043Z" stroke="currentColor" stroke-width="1.5" stroke-linecap="round"/>
		<path d="M16.5221 16.5218C16.5221 12.8719 13.5633 9.91309 9.91338 9.91309C6.2635 9.91309 3.30469 12.8719 3.30469 16.5218" stroke="currentColor" stroke-width="1.5" stroke-linecap="round"/>
	</symbol>
	<symbol xmlns="http://www.w3.org/2000/svg" id="cart" viewBox="0 0 21 24" fill="none">
		<path d="M15.8852 6.17676H4.8072C4.27651 6.17676 3.76401 6.37125 3.36561 6.72384C2.96721 7.07643 2.71023 7.56294 2.64276 8.09232L1.01746 19.7678C0.978348 20.0768 1.00513 20.3907 1.09601 20.6886C1.18689 20.9865 1.3398 21.2614 1.54455 21.4953C1.74931 21.7291 2.00122 21.9164 2.28354 22.0447C2.56585 22.173 2.8721 22.2393 3.1819 22.2394H17.5105C17.8203 22.2393 18.1266 22.173 18.4089 22.0447C18.6912 21.9164 18.9431 21.7291 19.1479 21.4953C19.3526 21.2614 19.5055 20.9865 19.5964 20.6886C19.6873 20.3907 19.7141 20.0768 19.675 19.7678L18.0497 8.09232C17.9822 7.56294 17.7252 7.07643 17.3268 6.72384C16.9284 6.37125 16.4159 6.17676 15.8852 6.17676Z" stroke="currentColor" stroke-width="1.7" stroke-miterlimit="10"/>
		<path d="M14.8964 9.36872V5.38522C14.8972 4.80962 14.7852 4.23951 14.5667 3.70751C14.3482 3.17551 14.0276 2.69204 13.6231 2.28476C13.2187 1.87748 12.7384 1.55437 12.2097 1.33392C11.681 1.11347 11.1143 0.999999 10.542 1C9.96964 0.999999 9.40292 1.11347 8.87422 1.33392C8.34553 1.55437 7.86524 1.87748 7.46081 2.28476C7.05638 2.69204 6.73576 3.17551 6.51727 3.70751C6.29879 4.23951 6.18673 4.80962 6.1875 5.38522V9.37465" stroke="currentColor" stroke-width="2" stroke-miterlimit="10" stroke-linecap="round"/>
	</symbol>
	<symbol xmlns="http://www.w3.org/2000/svg" id="heart" viewBox="0 0 23 21" fill="none">
		<path d="M11.5055 3.9307C7.62911 -2.60722 -1.48632 2.90413 1.64212 9.61602C3.51036 13.0658 10.6803 19.2263 11.5055 20C12.4382 19.0163 20.3225 12.6159 21.7091 8.7713C23.6872 2.16538 15.0574 -2.16219 11.5055 3.9307Z" stroke="currentColor" stroke-width="1.7" stroke-linejoin="round"/>
	</symbol>
	<symbol xmlns="http://www.w3.org/2000/svg" id="heart1" viewBox="0 0 23 21" fill="none">
		<path d="M11.5055 3.9307C7.62911 -2.60722 -1.48632 2.90413 1.64212 9.61602C3.51036 13.0658 10.6803 19.2263 11.5055 20C12.4382 19.0163 20.3225 12.6159 21.7091 8.7713C23.6872 2.16538 15.0574 -2.16219 11.5055 3.9307Z" stroke="currentColor" stroke-width="1.7" stroke-linejoin="round" fill="var(--color-1)"/>
	</symbol>
	<symbol xmlns="http://www.w3.org/2000/svg" id="search" viewBox="0 0 18 18" fill="none">
		<circle cx="8.15" cy="8.15" r="6.9" stroke="currentColor" stroke-width="1.5"/>
		<path d="M13.25 13.25L16.65 16.65" stroke="currentColor" stroke-width="1.5" stroke-linecap="round"/>
	</symbol>
	<symbol xmlns="http://www.w3.org/2000/svg" id="catalog" viewBox="0 0 21 22" fill="none">
		<rect x="0.75" y="0.785645" width="6.87618" height="6.87618" stroke="currentColor" stroke-width="1.5"/>
		<rect x="0.75" y="11.6748" width="6.87618" height="6.87618" stroke="currentColor" stroke-width="1.5"/>
		<rect x="11.6387" y="0.785645" width="6.87618" height="6.87618" stroke="currentColor" stroke-width="1.5"/>
		<rect x="10.215" y="15.1128" width="6.87618" height="6.87618" transform="rotate(-45 10.215 15.1128)" stroke="currentColor" stroke-width="1.5"/>
	</symbol>
	<symbol xmlns="http://www.w3.org/2000/svg" id="phone" viewBox="0 0 20 20" fill="none">
		<path d="M0.954408 5.32226L1.05332 5.33676L0.954408 5.32226C0.830787 6.16519 0.918122 7.00522 1.21339 7.81811L1.30738 7.78396L1.21339 7.81811C2.11996 10.3138 3.59636 12.63 5.48322 14.5168C7.37007 16.4036 9.68624 17.88 12.1819 18.7866C12.7559 18.9951 13.3436 19.1 13.9366 19.1C14.1831 19.1 14.4304 19.0819 14.6777 19.0455C15.4673 18.9297 16.2333 18.624 16.8935 18.1615C17.5565 17.6969 18.1081 17.0776 18.4885 16.37C18.8943 15.6155 19.1 14.7918 19.1 13.9228C19.1 13.6104 18.8818 13.3405 18.5764 13.275L18.5554 13.3728L18.5763 13.275L14.4562 12.3921L14.4562 12.3921C14.2365 12.3451 14.0078 12.4125 13.8489 12.5714L12.3916 14.0288C9.63211 12.6237 7.37623 10.3678 5.97113 7.60838L7.42851 6.15104L7.42852 6.15103C7.58738 5.99212 7.65491 5.7635 7.60783 5.54376L7.60783 5.54376L6.72495 1.42365L6.72495 1.42364C6.65949 1.11824 6.38953 0.9 6.07717 0.9C5.20818 0.9 4.38447 1.10569 3.62996 1.51142L3.67732 1.59949L3.62996 1.51142C2.92241 1.89191 2.30307 2.44343 1.83848 3.1065L1.9178 3.16208L1.83848 3.1065C1.37592 3.76668 1.07021 4.53269 0.954408 5.32226Z" fill="currentColor" stroke="currentColor" stroke-width="0.2"/>
	</symbol>
	<symbol xmlns="http://www.w3.org/2000/svg" id="fb" viewBox="0 0 11 19" fill="none">
		<path d="M10.1581 0.00395327L7.62627 0C4.78188 0 2.94371 1.8353 2.94371 4.67593V6.83184H0.398101C0.17813 6.83184 0 7.00539 0 7.21946V10.3431C0 10.5572 0.178333 10.7306 0.398101 10.7306H2.94371V18.6126C2.94371 18.8267 3.12184 19 3.34181 19H6.66311C6.88308 19 7.06121 18.8265 7.06121 18.6126V10.7306H10.0376C10.2576 10.7306 10.4357 10.5572 10.4357 10.3431L10.4369 7.21946C10.4369 7.11667 10.3949 7.01824 10.3204 6.9455C10.2458 6.87276 10.1443 6.83184 10.0386 6.83184H7.06121V5.00424C7.06121 4.12583 7.2763 3.6799 8.45212 3.6799L10.1577 3.67931C10.3774 3.67931 10.5556 3.50576 10.5556 3.29189V0.391374C10.5556 0.177699 10.3776 0.0043486 10.1581 0.00395327Z" fill="currentColor"/>
	</symbol>
	<symbol xmlns="http://www.w3.org/2000/svg" id="inst" viewBox="0 0 19 19" fill="none">
		<path d="M13.7573 0H5.24274C3.85285 0.00185839 2.52042 0.554813 1.53761 1.53761C0.554813 2.52042 0.00185839 3.85285 0 5.24274L0 13.7559C0.00148743 15.1459 0.554323 16.4785 1.5372 17.4614C2.52009 18.4443 3.85273 18.9971 5.24274 18.9986H13.7559C15.1457 18.9967 16.4782 18.4438 17.461 17.461C18.4438 16.4782 18.9967 15.1457 18.9986 13.7559V5.24274C18.9967 3.85309 18.444 2.52087 17.4615 1.53811C16.479 0.555349 15.1469 0.00222993 13.7573 0V0ZM17.3142 13.7573C17.3131 14.7003 16.938 15.6044 16.2712 16.2712C15.6044 16.938 14.7003 17.3131 13.7573 17.3142H5.24274C4.29971 17.3131 3.39563 16.938 2.72881 16.2712C2.06199 15.6044 1.68688 14.7003 1.68577 13.7573V5.24274C1.68688 4.29971 2.06199 3.39563 2.72881 2.72881C3.39563 2.06199 4.29971 1.68688 5.24274 1.68577H13.7559C14.6989 1.68688 15.603 2.06199 16.2698 2.72881C16.9366 3.39563 17.3117 4.29971 17.3128 5.24274L17.3142 13.7573Z" fill="currentColor"/>
		<path d="M9.49927 4.60498C8.53098 4.60498 7.58444 4.89211 6.77933 5.43006C5.97423 5.96801 5.34673 6.73263 4.97618 7.62721C4.60564 8.52179 4.50868 9.50616 4.69759 10.4558C4.88649 11.4055 5.35277 12.2779 6.03745 12.9625C6.72213 13.6472 7.59447 14.1135 8.54415 14.3024C9.49384 14.4913 10.4782 14.3944 11.3728 14.0238C12.2674 13.6533 13.032 13.0258 13.5699 12.2207C14.1079 11.4156 14.395 10.469 14.395 9.50073C14.3935 8.20275 13.8772 6.95836 12.9594 6.04055C12.0416 5.12275 10.7972 4.60647 9.49927 4.60498ZM9.49927 12.7107C8.86445 12.7104 8.24397 12.5219 7.71628 12.169C7.18859 11.8162 6.77737 11.3147 6.53463 10.7282C6.29189 10.1416 6.22852 9.49622 6.35254 8.87363C6.47656 8.25105 6.78239 7.67922 7.23137 7.23043C7.68035 6.78165 8.25231 6.47607 8.87495 6.35232C9.49759 6.22858 10.1429 6.29223 10.7294 6.53523C11.3159 6.77822 11.8171 7.18966 12.1698 7.71751C12.5224 8.24535 12.7107 8.86591 12.7107 9.50073C12.7092 10.3517 12.3703 11.1674 11.7682 11.7689C11.1662 12.3704 10.3503 12.7086 9.49927 12.7093V12.7107Z" fill="currentColor"/>
		<path d="M14.6008 3.1748C14.3147 3.17496 14.0376 3.27431 13.8166 3.45592C13.5956 3.63752 13.4444 3.89014 13.3888 4.17073C13.3332 4.45132 13.3766 4.7425 13.5117 4.99466C13.6467 5.24682 13.865 5.44434 14.1294 5.55358C14.3938 5.66281 14.6878 5.67698 14.9615 5.59369C15.2351 5.51039 15.4714 5.33478 15.6301 5.09678C15.7887 4.85878 15.86 4.57312 15.8316 4.28848C15.8033 4.00385 15.6771 3.73786 15.4746 3.53584C15.2424 3.30486 14.9283 3.17508 14.6008 3.1748Z" fill="currentColor"/>
	</symbol>
	<symbol xmlns="http://www.w3.org/2000/svg" id="trash" viewBox="0 0 20 20" fill="none">
		<path d="M3 4L3.8133 16.1996C3.91836 17.7755 5.22727 19 6.80666 19H13.1933C14.7727 19 16.0816 17.7755 16.1867 16.1996L17 4" stroke="currentColor" stroke-width="1.5"/>
		<path d="M1 4L19 4" stroke="currentColor" stroke-width="1.5" stroke-linecap="round"/>
		<path d="M7 1H13" stroke="currentColor" stroke-width="1.5" stroke-linecap="round"/>
	</symbol>
	<symbol xmlns="http://www.w3.org/2000/svg" id="btn-arrow" viewBox="0 0 18 18" fill="none">
		 <path d="M1.58936 16.278L15.2077 2.95899M15.2077 2.95899L5.64633 1.3772M15.2077 2.95899L16.7112 12.1989" stroke="currentColor" stroke-width="2" stroke-linecap="round" stroke-linejoin="round"/>
	</symbol>
	<symbol xmlns="http://www.w3.org/2000/svg" id="cross" viewBox="0 0 40 40" fill="none">
		<path d="M14 14L26 26" stroke="currentColor" stroke-width="1.7" stroke-linecap="round"/>
		<path d="M14 26L26 14" stroke="currentColor" stroke-width="1.7" stroke-linecap="round"/>
	</symbol>
	<symbol xmlns="http://www.w3.org/2000/svg" id="rating-star" viewBox="0 0 21 21" fill="none">
		<path d="M10.1667 0L12.4492 7.02499H19.8357L13.8599 11.3667L16.1425 18.3917L10.1667 14.05L4.19085 18.3917L6.47341 11.3667L0.497592 7.02499H7.88411L10.1667 0Z" fill="currentColor"/>
	</symbol>
	<symbol xmlns="http://www.w3.org/2000/svg" id="spoiler" viewBox="0 0 50 48" fill="none">
		<rect width="49.2632" height="48" rx="24" fill="#161211"/>
		<path d="M20.0631 27.9652L28.6641 19.5532M28.6641 19.5532L22.6254 18.5542M28.6641 19.5532L29.6137 25.3889" stroke="white" stroke-width="2" stroke-linecap="round" stroke-linejoin="round"/>
	</symbol>
	<symbol xmlns="http://www.w3.org/2000/svg" id="marker" viewBox="0 0 13 18" fill="none">
		<path d="M9.47514 12.5252L9.47515 12.5252C9.97178 11.7348 10.6298 10.6138 11.1611 9.4547C11.7036 8.27125 12.0673 7.14602 12.0673 6.31676C12.0673 3.24793 9.5694 0.75 6.50042 0.75C3.43151 0.75 0.933594 3.24792 0.933594 6.31682C0.933594 7.15163 1.29541 8.27853 1.83394 9.46054C2.36164 10.6188 3.01507 11.7374 3.50824 12.5256M9.47514 12.5252L7.52842 15.279C7.03606 15.8835 6.74721 16.1586 6.58104 16.2814C6.5424 16.31 6.51537 16.3265 6.49872 16.3357C6.48116 16.3266 6.45107 16.3092 6.40689 16.2772C6.23767 16.1547 5.9441 15.8804 5.45225 15.2787C4.84804 14.5395 4.1562 13.5613 3.50824 12.5256M9.47514 12.5252C8.82766 13.5557 8.13496 14.5341 7.52845 15.279L9.47514 12.5252ZM3.50824 12.5256L2.87242 12.9234L3.50824 12.5256Z" stroke="currentColor" stroke-width="1.5"/>
		<path d="M4.40039 6.01349C4.40039 4.85707 5.34244 3.91504 6.49884 3.91504C7.65524 3.91504 8.59728 4.85707 8.59728 6.01349C8.59728 7.16991 7.65524 8.11193 6.49884 8.11193C5.34244 8.11193 4.40039 7.16991 4.40039 6.01349Z" stroke="currentColor" stroke-width="1.5"/>
	</symbol>
	<symbol xmlns="http://www.w3.org/2000/svg" id="history" viewBox="0 0 16 16" fill="none">
		<path d="M3.91667 4H3C1.89543 4 1 4.89543 1 6V13C1 14.1046 1.89543 15 3 15H13C14.1046 15 15 14.1046 15 13V6C15 4.89543 14.1046 4 13 4H10.9167" stroke="currentColor" stroke-width="1.5"/>
		<path d="M7 4H12" stroke="currentColor" stroke-width="1.5" stroke-linecap="round"/>
		<path d="M1 7H15" stroke="currentColor" stroke-width="1.5"/>
		<path d="M4 1V5" stroke="currentColor" stroke-width="1.5" stroke-linecap="round"/>
		<path d="M12 1V5" stroke="currentColor" stroke-width="1.5" stroke-linecap="round"/>
	</symbol>
	<symbol xmlns="http://www.w3.org/2000/svg" id="ticket" viewBox="0 0 17 17" fill="none">
		<path d="M15.808 5.05879C15.8741 4.48293 15.9392 3.90636 15.9994 3.37658C16.0089 3.05646 15.9104 2.8271 15.7179 2.63644C15.2778 2.19601 14.8346 1.76191 14.4011 1.31656C14.1461 1.05343 13.8478 0.967597 13.4914 1.01051C12.392 1.14067 11.293 1.28138 10.1908 1.38481C9.71623 1.42984 9.35106 1.59799 9.00947 1.94273C6.45188 4.50861 3.89195 7.07249 1.32968 9.63438C0.889228 10.0752 0.890284 10.6 1.33179 11.0415L5.96042 15.6692C6.40087 16.1099 6.92611 16.1106 7.36762 15.6692C9.9897 13.0425 12.614 10.4185 15.2405 7.79704C15.4378 7.60256 15.558 7.34329 15.579 7.0671C15.6479 6.39555 15.7313 5.72717 15.808 5.05879Z" stroke="currentColor" stroke-width="1.5"/>
		<circle cx="12" cy="5" r="1" stroke="currentColor"/>
	</symbol>
	<symbol xmlns="http://www.w3.org/2000/svg" id="back" viewBox="0 0 18 16" fill="none">
		<path d="M10.1048 14.2961C13.6377 14.574 16.727 11.9353 17.0048 8.40247C17.2827 4.86959 14.644 1.78036 11.1112 1.50247C7.5783 1.22458 4.48906 3.86326 4.21117 7.39613" stroke="currentColor" stroke-width="1.5" stroke-linecap="round"/>
		<path d="M1.72461 5.75635L3.47643 9.42871L6.96559 7.76429" stroke="currentColor" stroke-width="1.5" stroke-linecap="round" stroke-linejoin="round"/>
	</symbol>
	<symbol xmlns="http://www.w3.org/2000/svg" id="exit" viewBox="0 0 16 14" fill="none">
		<path d="M12.1895 9.05566L14.6284 6.64116L12.3344 4.32386" stroke="currentColor" stroke-width="1.5" stroke-linecap="round" stroke-linejoin="round"/>
		<path d="M6.38574 6.70557H13.4449" stroke="currentColor" stroke-width="1.5" stroke-linecap="round"/>
		<path d="M8.61432 1H1.18359V12.8892H8.61432" stroke="currentColor" stroke-width="1.5" stroke-linecap="round" stroke-linejoin="round"/>
	</symbol>
	<symbol xmlns="http://www.w3.org/2000/svg" id="plus" viewBox="0 0 23 23" fill="none">
		<path d="M1 11.5L22 11.5" stroke="currentColor" stroke-width="2" stroke-linecap="round"/>
		<path d="M11.5 1L11.5 22" stroke="currentColor" stroke-width="2" stroke-linecap="round"/>
	</symbol>
	<symbol xmlns="http://www.w3.org/2000/svg" id="pencil" viewBox="0 0 16 16" fill="none">
		<path d="M0.616184 15.6696C0.571714 15.68 0.525339 15.6789 0.481405 15.6664C0.43747 15.654 0.397413 15.6305 0.364987 15.5983C0.33256 15.566 0.308825 15.5261 0.296006 15.4821C0.283186 15.4382 0.281701 15.3917 0.29169 15.347C0.475219 14.5373 0.652669 13.7525 0.829012 12.9705C0.939572 12.4844 1.03797 11.9961 1.16069 11.5139C1.20947 11.3082 1.28571 11.1101 1.38734 10.9248C1.75921 10.264 2.21789 9.65634 2.7511 9.11799C5.48046 6.38044 8.21277 3.64622 10.948 0.915316C11.78 0.0839635 12.9425 0.0883974 13.7795 0.919195C14.2059 1.34152 14.6297 1.76644 15.0509 2.19394C15.8707 3.02529 15.8762 4.18364 15.0537 5.00889C12.3239 7.74607 9.59035 10.4803 6.85288 13.2116C6.61352 13.4493 6.31501 13.6278 6.03916 13.8279C5.1204 14.493 4.76274 14.7102 3.31385 15.0472C2.50842 15.2517 1.42438 15.4795 0.616184 15.6696ZM5.20443 13.2454C5.54993 12.9816 5.93302 12.7493 6.24259 12.4423C8.2089 10.4958 10.1581 8.53272 12.1161 6.57793C12.1935 6.50089 12.3018 6.45545 12.3958 6.39503L12.2725 6.37896L9.57929 3.65324C9.55876 3.66923 9.53919 3.68645 9.5207 3.70478C7.47275 5.75175 5.42592 7.8002 3.38019 9.85013C3.11705 10.1151 2.89759 10.4243 2.67205 10.6965L5.20443 13.2454ZM13.0619 5.62631C13.5313 5.15632 14.0045 4.70517 14.4517 4.22964C14.7999 3.8583 14.7784 3.30185 14.4169 2.92774C13.9702 2.46477 13.516 2.0103 13.0542 1.56432C12.8684 1.38319 12.6196 1.28185 12.3604 1.28185C12.1013 1.28185 11.8524 1.38319 11.6667 1.56432C11.3101 1.91072 10.9657 2.26987 10.6086 2.61737C10.5132 2.6996 10.4111 2.77375 10.3035 2.83906L13.0619 5.62631ZM1.48408 14.4536C1.55208 14.4536 4.1928 13.8229 4.25472 13.793L2.12201 11.6381C1.91305 12.5598 1.70133 13.4931 1.48408 14.4536Z" fill="currentColor" stroke="currentColor" stroke-width="0.25"/>
	</symbol>
	<symbol xmlns="http://www.w3.org/2000/svg" id="menu-arrow" viewBox="0 0 7 11" fill="none">
		<path d="M1.25 9.75L5.75 5.25L1.25 0.75" stroke="currentColor" stroke-width="1.5" stroke-linecap="round"/>
	</symbol>
	<symbol xmlns="http://www.w3.org/2000/svg" id="catalog" viewBox="0 0 21 22" fill="none">
		<rect x="0.75" y="0.785645" width="6.87618" height="6.87618" stroke="currentColor" stroke-width="1.5"/>
		<rect x="0.75" y="11.6746" width="6.87618" height="6.87618" stroke="currentColor" stroke-width="1.5"/>
		<rect x="11.6392" y="0.785645" width="6.87618" height="6.87618" stroke="currentColor" stroke-width="1.5"/>
		<rect x="10.215" y="15.1128" width="6.87618" height="6.87618" transform="rotate(-45 10.215 15.1128)" stroke="currentColor" stroke-width="1.5"/>
	</symbol>
	<symbol xmlns="http://www.w3.org/2000/svg" id="go-arrow" viewBox="0 0 21 13" fill="none">
		<path d="M0.999674 6.5L19.333 6.5M19.333 6.5L13.7984 12M19.333 6.5L13.7984 1" stroke="currentColor" stroke-width="1.5" stroke-linecap="round" stroke-linejoin="round"/>
	</symbol>
	<symbol xmlns="http://www.w3.org/2000/svg" id="filter" viewBox="0 0 23 17" fill="none">
		<path d="M1 4H12" stroke="currentColor" stroke-width="2" stroke-linecap="round"/>
		<path d="M18 4L22 4" stroke="currentColor" stroke-width="2" stroke-linecap="round"/>
		<circle cx="15" cy="4" r="3" stroke="currentColor" stroke-width="2"/>
		<path d="M10 13H22" stroke="currentColor" stroke-width="2" stroke-linecap="round"/>
		<path d="M1 13H4" stroke="currentColor" stroke-width="2" stroke-linecap="round"/>
		<circle cx="7" cy="13" r="3" stroke="currentColor" stroke-width="2"/>
	</symbol>
	<symbol xmlns="http://www.w3.org/2000/svg" id="pag" viewBox="0 0 22 19" fill="none">
		<path d="M1.17372 9.80013L20.2225 9.80013M20.2225 9.80013L14.4929 1.98389M20.2225 9.80013L14.8368 17.4572" stroke="currentColor" stroke-width="2" stroke-linecap="round" stroke-linejoin="round"/>
	</symbol>
	<symbol xmlns="http://www.w3.org/2000/svg" id="trigger" viewBox="0 0 12 7" fill="none">
		<path d="M1 1L5.87687 5.59L10.7537 1" stroke="currentColor" stroke-width="2" stroke-linecap="round" stroke-linejoin="round"/>
	</symbol>
</svg>


